#N canvas 644 69 1041 823 10;
#X obj 151 307 hsl 75 12 0 1 0 0 empty empty empty -2 -8 0 10 -232576
-1 -1 1300 1;
#X obj 148 360 s \$0-pan;
#X obj 422 62 r \$0-pan;
#X obj 148 81 inlet;
#X obj 274 660 outlet~;
#X obj 351 661 outlet~;
#X obj 425 660 outlet~;
#X obj 501 661 outlet~;
#X obj 8 82 inlet~;
#X text 10 62 audio;
#X obj 311 242 panner2~ 3 0 3;
#X obj 410 242 panner2~ 3 1 3;
#X obj 506 242 panner2~ 3 2 3;
#X obj 604 243 panner2~ 3 3 3;
#X obj 761 68 inlet;
#X text 753 48 width 0-1;
#X text 129 62 panorama 0-1;
#X connect 0 0 1 0;
#X connect 2 0 10 1;
#X connect 2 0 11 1;
#X connect 2 0 12 1;
#X connect 2 0 13 1;
#X connect 3 0 0 0;
#X connect 8 0 10 0;
#X connect 8 0 11 0;
#X connect 8 0 12 0;
#X connect 8 0 13 0;
#X connect 10 0 4 0;
#X connect 11 0 5 0;
#X connect 12 0 6 0;
#X connect 13 0 7 0;
#X connect 14 0 13 2;
#X connect 14 0 12 2;
#X connect 14 0 10 2;
