#N canvas 925 46 769 552 10;
#X obj 249 8 inlet;
#X obj 163 358 line~;
#X obj 148 419 outlet~;
#X obj 37 43 inlet~;
#X obj 148 391 *~;
#X obj 163 337 pack 0 200;
#X text 283 107 speaker position;
#X text 277 63 number of speakers -1;
#X obj 249 189 clip -1 1;
#X obj 249 423 outlet;
#X text 138 448 signal out;
#X text 254 454 control out (for monitoring/debugging);
#X floatatom 335 356 5 0 0 0 - - -;
#X obj 249 225 expr sin(3.14159 * $f1 / 2 + 1.57079632679);
#X obj 249 63 * \$1;
#X obj 249 106 - \$2;
#X text 280 147 sets span/range of panning behavior (num of speakers
-1 for full span);
#X obj 456 6 inlet;
#X text 505 8 panning width;
#X floatatom 485 195 5 0 0 0 - - -;
#X obj 291 125 t b f;
#X obj 456 34 jrange 0 1 1 \$3;
#X obj 249 154 / 1;
#X connect 0 0 14 0;
#X connect 1 0 4 1;
#X connect 3 0 4 0;
#X connect 4 0 2 0;
#X connect 5 0 1 0;
#X connect 8 0 13 0;
#X connect 13 0 12 0;
#X connect 13 0 9 0;
#X connect 13 0 5 0;
#X connect 14 0 15 0;
#X connect 15 0 22 0;
#X connect 17 0 21 0;
#X connect 20 0 22 0;
#X connect 20 1 22 1;
#X connect 21 0 19 0;
#X connect 21 0 20 0;
#X connect 22 0 8 0;
